<?xml version="1.0" encoding="UTF-8"?>
<svg xmlns="http://www.w3.org/2000/svg" xml:space="preserve" width="32" height="32" version="1.1" style="shape-rendering:geometricPrecision; text-rendering:geometricPrecision; image-rendering:optimizeQuality; fill-rule:evenodd; clip-rule:evenodd"
viewBox="0 0 640 640" xmlns:xlink="http://www.w3.org/1999/xlink">
 <g id="modenyania">
  <path d="M320 0c177,0 320,143 320,320 0,177 -143,320 -320,320 -177,0 -320,-143 -320,-320 0,-177 143,-320 320,-320zm-157 349l14 50 136 -236 94 0 -12 5 -179 309 -53 0 0 -128zm314 -58l-14 -50 -136 236 -94 0 12 -5 179 -309 53 0 0 128z" fill="#D0011B"/>
 </g>
</svg>
